<?xml version="1.0" encoding="UTF-8" standalone="no"?> <svg id="Layer_1" data-name="Layer 1" xmlns="http://www.w3.org/2000/svg" viewBox="0 0 48 48"><polygon points="42 29.62 42 28.06 41.42 29.06 42 29.62"/><path d="M37,4H9A5,5,0,0,0,4,9V29.69l5.11-4.94a4.968,4.968,0,0,1,6.95,0l2.38,2.29a.978.978,0,0,0,1.38,0l6.28-6.07a5,5,0,0,1,6.96,0l.96.92,2.78-4.82a4.01,4.01,0,0,1,3.47-2,3.852,3.852,0,0,1,1.73.4V9A5,5,0,0,0,37,4ZM13.5,18A4.5,4.5,0,1,1,18,13.5,4.494,4.494,0,0,1,13.5,18Z"/><path d="M31.67,22.41l1.31,1.27L25.36,36.89a6.062,6.062,0,0,0-.81,3.1L24.59,42H9a5,5,0,0,1-5-5V32.47l6.5-6.28a2.988,2.988,0,0,1,4.17,0l2.37,2.29a2.988,2.988,0,0,0,4.17,0l6.29-6.07A2.988,2.988,0,0,1,31.67,22.41Z"/><path d="M42,32.4V37a5,5,0,0,1-5,5H33.95a.413.413,0,0,0,.07-.11l6.37-11.04Z"/><path d="M36.7,21.249l-9.163,15.87,5.2,3L41.9,24.249Zm.287,7.5a1,1,0,0,1-1.732-1l1.5-2.6a1,1,0,1,1,1.732,1Z"/><path d="M42.9,22.516l.837-1.449A2,2,0,0,0,43,18.335l-1.732-1a2,2,0,0,0-2.732.732l-.837,1.45Z"/><path d="M26.674,38.932a3.983,3.983,0,0,0-.12,1.028l.052,3.055a1,1,0,0,0,1.485.858l2.672-1.483a4.007,4.007,0,0,0,.831-.618Z"/></svg>