<?xml version="1.0" encoding="UTF-8" standalone="no"?> <svg width="24" height="24" viewBox="0 0 24 24" fill="none" xmlns="http://www.w3.org/2000/svg">
<path d="M18 21H6C5.20435 21 4.44129 20.6839 3.87868 20.1213C3.31607 19.5587 3 18.7956 3 18V6C3 5.20435 3.31607 4.44129 3.87868 3.87868C4.44129 3.31607 5.20435 3 6 3H18C18.7956 3 19.5587 3.31607 20.1213 3.87868C20.6839 4.44129 21 5.20435 21 6V18C21 18.7956 20.6839 19.5587 20.1213 20.1213C19.5587 20.6839 18.7956 21 18 21V21ZM6 5C5.73478 5 5.48043 5.10536 5.29289 5.29289C5.10536 5.48043 5 5.73478 5 6V17.7L12.277 11.626C12.7741 11.2203 13.3964 10.9993 14.0381 11.0003C14.6797 11.0014 15.3012 11.2246 15.797 11.632L19 14.364V6C19 5.73478 18.8946 5.48043 18.7071 5.29289C18.5196 5.10536 18.2652 5 18 5H6ZM8 10C7.70333 10 7.41332 9.91203 7.16664 9.7472C6.91997 9.58238 6.72771 9.34811 6.61418 9.07403C6.50065 8.79994 6.47094 8.49834 6.52882 8.20736C6.5867 7.91639 6.72956 7.64912 6.93934 7.43934C7.14912 7.22956 7.41639 7.0867 7.70736 7.02882C7.99834 6.97094 8.29994 7.00065 8.57403 7.11418C8.84811 7.22771 9.08238 7.41997 9.2472 7.66664C9.41203 7.91332 9.5 8.20333 9.5 8.5C9.5 8.89782 9.34196 9.27936 9.06066 9.56066C8.77936 9.84196 8.39782 10 8 10V10Z" fill="black"/>
</svg>
