<svg version="1.1" id="Layer_1" xmlns="http://www.w3.org/2000/svg" xmlns:xlink="http://www.w3.org/1999/xlink" x="0px" y="0px"
	 width="100%" viewBox="0 0 512 512" enable-background="new 0 0 512 512" xml:space="preserve">
<path fill="#000000" opacity="0.000000" stroke="none" 
	d="
M289.000000,513.000000 
	C192.690048,513.000000 96.880096,513.000000 1.035069,513.000000 
	C1.035069,342.398346 1.035069,171.796707 1.035069,1.097524 
	C171.559967,1.097524 342.120026,1.097524 512.840027,1.097524 
	C512.840027,171.666550 512.840027,342.333252 512.840027,513.000000 
	C438.463348,513.000000 363.981659,513.000000 289.000000,513.000000 
M27.021627,202.946854 
	C27.011236,278.649841 26.995789,354.352814 27.030899,430.055786 
	C27.031528,431.409821 27.637735,432.763611 27.971556,434.968384 
	C28.178185,436.745117 28.242968,438.552094 28.614311,440.293701 
	C31.148495,452.178802 36.786705,462.035736 45.751736,470.580170 
	C55.529842,479.899475 66.615120,485.039429 80.352890,486.774475 
	C81.676811,486.852875 83.000732,486.999847 84.324661,486.999939 
	C180.913239,487.006927 277.501831,487.003235 374.090393,486.990204 
	C375.750793,486.989990 377.411224,486.866333 379.988800,486.953979 
	C395.649292,486.969452 411.309875,486.965729 426.970276,487.007263 
	C437.087341,487.034119 446.750610,484.665771 455.551605,479.984436 
	C475.842224,469.191620 486.677917,451.434631 486.776642,428.972443 
	C487.266510,317.516693 487.014587,206.057663 486.958008,94.599815 
	C486.955170,89.013329 486.657288,83.386284 485.951355,77.847649 
	C482.134216,47.898529 458.282074,27.363131 428.993500,27.219597 
	C317.538269,26.673391 206.078796,26.985146 94.620941,27.041927 
	C89.035507,27.044773 83.397766,27.286154 77.873901,28.057526 
	C48.076183,32.218586 28.432020,54.178471 27.365398,83.105812 
	C25.929974,122.035240 27.071909,161.059692 26.955004,200.693375 
	C27.010283,201.133530 27.065561,201.573669 27.021627,202.946854 
z"/>
<path fill="#29B6F6" opacity="1.000000" stroke="none" 
	d="
M27.107620,200.043365 
	C27.071909,161.059692 25.929974,122.035240 27.365398,83.105812 
	C28.432020,54.178471 48.076183,32.218586 77.873901,28.057526 
	C83.397766,27.286154 89.035507,27.044773 94.620941,27.041927 
	C206.078796,26.985146 317.538269,26.673391 428.993500,27.219597 
	C458.282074,27.363131 482.134216,47.898529 485.951355,77.847649 
	C486.657288,83.386284 486.955170,89.013329 486.958008,94.599815 
	C487.014587,206.057663 487.266510,317.516693 486.776642,428.972443 
	C486.677917,451.434631 475.842224,469.191620 455.551605,479.984436 
	C446.750610,484.665771 437.087341,487.034119 426.970276,487.007263 
	C411.309875,486.965729 395.649292,486.969452 379.535828,486.689087 
	C379.082825,486.424194 379.058624,486.048737 379.094055,485.578278 
	C378.990143,452.224976 372.080597,420.653473 360.009033,390.227264 
	C342.097229,345.080933 314.120422,307.108673 277.256470,275.544708 
	C249.260300,251.573639 217.967560,233.266388 183.635788,220.015915 
	C157.077255,209.765549 129.586304,203.274887 101.330841,200.306198 
	C88.450729,198.952942 75.436386,198.432892 62.479725,198.384094 
	C50.691273,198.339676 38.898491,199.444916 27.107620,200.043365 
M334.219757,99.678711 
	C312.730652,112.573235 302.121674,135.163940 305.902161,159.978287 
	C310.789093,192.055405 341.555481,213.540878 374.607880,207.958389 
	C405.083008,202.811234 426.979248,171.581802 421.531189,141.034256 
	C414.252411,100.221901 372.099304,79.915268 334.219757,99.678711 
z"/>
<path fill="#1565C0" opacity="1.000000" stroke="none" 
	d="
M27.031311,200.368378 
	C38.898491,199.444916 50.691273,198.339676 62.479725,198.384094 
	C75.436386,198.432892 88.450729,198.952942 101.330841,200.306198 
	C129.586304,203.274887 157.077255,209.765549 183.635788,220.015915 
	C217.967560,233.266388 249.260300,251.573639 277.256470,275.544708 
	C314.120422,307.108673 342.097229,345.080933 360.009033,390.227264 
	C372.080597,420.653473 378.990143,452.224976 378.619629,485.564575 
	C278.697540,486.025757 179.285324,486.030182 79.873100,486.034607 
	C66.615120,485.039429 55.529842,479.899475 45.751736,470.580170 
	C36.786705,462.035736 31.148495,452.178802 28.614311,440.293701 
	C28.242968,438.552094 28.178185,436.745117 27.984087,434.067139 
	C27.997513,358.055634 28.004995,282.945343 27.962521,207.835083 
	C27.961424,205.894516 27.413660,203.954239 27.120840,202.013824 
	C27.065561,201.573669 27.010283,201.133530 27.031311,200.368378 
z"/>
<path fill="#1D88D6" opacity="1.000000" stroke="none" 
	d="
M80.112991,486.404541 
	C179.285324,486.030182 278.697540,486.025757 378.584198,486.035034 
	C379.058624,486.048737 379.082825,486.424194 379.077209,486.612213 
	C377.411224,486.866333 375.750793,486.989990 374.090393,486.990204 
	C277.501831,487.003235 180.913239,487.006927 84.324661,486.999939 
	C83.000732,486.999847 81.676811,486.852875 80.112991,486.404541 
z"/>
<path fill="#1D87D6" opacity="1.000000" stroke="none" 
	d="
M27.071234,202.480347 
	C27.413660,203.954239 27.961424,205.894516 27.962521,207.835083 
	C28.004995,282.945343 27.997513,358.055634 27.978996,433.641724 
	C27.637735,432.763611 27.031528,431.409821 27.030899,430.055786 
	C26.995789,354.352814 27.011236,278.649841 27.071234,202.480347 
z"/>
<path fill="#E0F5FE" opacity="1.000000" stroke="none" 
	d="
M334.524353,99.472710 
	C372.099304,79.915268 414.252411,100.221901 421.531189,141.034256 
	C426.979248,171.581802 405.083008,202.811234 374.607880,207.958389 
	C341.555481,213.540878 310.789093,192.055405 305.902161,159.978287 
	C302.121674,135.163940 312.730652,112.573235 334.524353,99.472710 
z"/>
</svg>